<svg width="65" height="72" viewBox="0 0 65 72" fill="none" xmlns="http://www.w3.org/2000/svg">
<g clip-path="url(#clip0_10_122)">
<path d="M1.02531 33.6405C1.02531 33.9242 0.799394 34.1501 0.515551 34.1501C0.231708 34.1501 0 33.9242 0 33.6405V33.3683C0 32.5865 0.318599 31.8742 0.83415 31.3646C1.3497 30.8492 2.0622 30.5306 2.83843 30.5306H3.05855V30.5017V25.892C3.01221 24.3921 3.36556 22.9327 4.0491 21.6587C4.73844 20.3673 5.76375 19.2612 7.04973 18.4852C8.33571 17.7092 9.77809 17.3212 11.2263 17.3212C12.6744 17.3212 14.1168 17.7092 15.4028 18.4852C16.6888 19.2612 17.7141 20.3673 18.4034 21.6587C19.087 22.9385 19.4403 24.4095 19.394 25.9209V30.5306H19.6141C20.3961 30.5306 21.1086 30.8492 21.6184 31.3646L21.6474 31.3993C22.1455 31.9147 22.4525 32.6096 22.4525 33.3741V46.2419C22.4525 47.0237 22.1339 47.7302 21.6184 48.2456C21.1086 48.761 20.3903 49.0795 19.6141 49.0795H2.84422C2.0622 49.0795 1.3497 48.761 0.839943 48.2456C0.324392 47.7302 0.00579271 47.0179 0.00579271 46.2361V38.4297C0.00579271 38.1459 0.231708 37.9201 0.515551 37.9201C0.799394 37.9201 1.02531 38.1459 1.02531 38.4297V46.2361C1.02531 46.7341 1.22805 47.1916 1.55824 47.5159C1.88842 47.846 2.34026 48.0487 2.83843 48.0487H19.6025C20.1007 48.0487 20.5525 47.846 20.8827 47.5159C21.2129 47.1858 21.4156 46.7341 21.4156 46.2361V33.3683C21.4156 32.8818 21.2187 32.4359 20.9059 32.1058L20.8827 32.0827C20.5525 31.7526 20.1007 31.5499 19.6025 31.5499H2.84422C2.34605 31.5499 1.89422 31.7526 1.56403 32.0827C1.23385 32.4128 1.0311 32.8645 1.0311 33.3625V33.6347L1.02531 33.6405ZM11.2263 33.9995C12.2284 33.9995 13.1321 34.4049 13.7866 35.0593C14.447 35.7195 14.8525 36.6229 14.8525 37.6247C14.8525 38.2733 14.6787 38.8872 14.3775 39.42C14.111 39.8833 13.7519 40.2828 13.3232 40.584V43.5085C13.3232 44.0818 13.0857 44.6088 12.7092 44.9852C12.3269 45.3674 11.8055 45.5991 11.2321 45.5991C10.6586 45.5991 10.1315 45.3616 9.75492 44.9852C9.37261 44.603 9.1409 44.0818 9.1409 43.5085V40.584C8.71224 40.2771 8.3473 39.8775 8.08662 39.42C7.7854 38.8872 7.61162 38.2791 7.61162 37.6247C7.61162 36.6229 8.01711 35.7195 8.67169 35.0651C9.33206 34.4107 10.2357 34.0053 11.2379 34.0053L11.2263 33.9995ZM13.0626 35.7832C12.5934 35.3141 11.9446 35.0245 11.2205 35.0245C10.4964 35.0245 9.84761 35.3141 9.3784 35.7832C8.90919 36.2522 8.61955 36.9066 8.61955 37.6247C8.61955 38.0938 8.7412 38.5339 8.96132 38.9161C9.18145 39.2984 9.49425 39.6227 9.87657 39.8543C10.0388 39.9412 10.1546 40.1091 10.1546 40.3118V43.5085C10.1546 43.8038 10.2763 44.0702 10.4674 44.2671C10.6586 44.4582 10.9308 44.5798 11.2263 44.5798C11.5217 44.5798 11.7882 44.4582 11.9851 44.2671C12.1763 44.076 12.2979 43.8038 12.2979 43.5085V40.3118C12.2979 40.1381 12.3906 39.9643 12.5528 39.8717C12.9409 39.64 13.2711 39.3099 13.4912 38.9219C13.7056 38.5455 13.833 38.0996 13.833 37.6305C13.833 36.9124 13.5434 36.258 13.0741 35.789L13.0626 35.7832ZM4.08386 30.5306H18.3687V25.9036C18.4208 24.5716 18.108 23.2686 17.5056 22.1394C16.9031 21.0101 15.9995 20.043 14.8757 19.3654C13.7519 18.6879 12.4891 18.3462 11.2263 18.3462C9.96346 18.3462 8.70065 18.6879 7.58266 19.3654C6.45887 20.043 5.55521 21.0159 4.95277 22.1394C4.35033 23.257 4.04331 24.5369 4.08386 25.863V30.5075V30.5364V30.5306ZM1.02531 36.1075C1.02531 36.3912 0.793601 36.6171 0.515551 36.6171C0.237501 36.6171 0 36.3854 0 36.1075V35.9627C0 35.6789 0.231708 35.4531 0.515551 35.4531C0.799394 35.4531 1.02531 35.6789 1.02531 35.9627V36.1075Z" fill="#00E6B0"/>
<path d="M46.753 18.4447C51.1265 18.4447 54.9323 19.545 56.9366 21.3808L57.0292 21.4676L57.1509 21.4213C58.0603 21.0912 59.0103 20.9001 59.9661 20.848L60.1689 20.8364V18.2883C60.1689 14.2403 58.7786 5.98225 56.0039 3.92641C54.3356 2.6987 50.7731 1.93428 46.7008 1.93428C42.6286 1.93428 39.066 2.6987 37.3977 3.92641C34.6752 5.95329 33.3081 14.2288 33.3081 18.2883V20.7901H33.5108C34.5072 20.8306 35.4977 21.0159 36.4419 21.3402L36.5578 21.3808L36.6505 21.2997C38.6663 19.5102 42.4374 18.4447 46.7414 18.4447M46.7414 20.3499C42.895 20.3499 39.4715 21.2997 37.809 22.8285L37.7221 22.9096L39.234 30.606L39.4542 30.5538C41.8639 29.9632 44.3374 29.662 46.8167 29.662C49.296 29.662 51.6768 29.9516 54.0402 30.5191L54.2545 30.5712L55.7664 22.9154L55.6795 22.8343C54.0286 21.3055 50.6051 20.3557 46.753 20.3557M59.943 22.7648C59.1957 22.7996 58.46 22.9501 57.7591 23.2223L57.6491 23.2629L55.9112 31.9495L55.0423 37.7174V39.8717L55.3551 39.698C57.2841 38.644 58.6917 38.0881 59.439 38.0881H60.1631V22.7532L59.9372 22.7648H59.943ZM59.4332 40.0165C58.8424 40.0454 56.7396 41.0878 55.1466 42.0434L55.0423 42.1071V55.9941H56.896C57.4347 55.9594 58.9408 54.998 60.0878 54.0946L60.1689 54.0309V40.0223H59.4332V40.0165ZM46.8225 31.5847C44.4533 31.5847 42.084 31.88 39.7843 32.4533L39.599 32.4996L39.6279 32.6908C39.8133 33.93 40.1377 36.0496 40.3694 37.5147V56.2489L40.549 56.2721C42.5938 56.5443 44.6792 56.6775 46.7472 56.6775C48.8152 56.6775 50.8948 56.5385 52.9454 56.2721L53.1307 56.2489V37.4858L53.9186 32.4649L53.7274 32.4186C51.474 31.8626 49.1512 31.5847 46.8341 31.5847M40.2362 58.4032C40.2999 59.3935 40.5258 61.7968 41.1746 62.7697C41.8697 63.4241 44.4591 63.6441 46.6545 63.6441C48.8499 63.6441 51.5783 63.4125 52.2792 62.7697C52.9338 61.7852 53.1481 59.4109 53.2176 58.4379L53.235 58.1831L52.9801 58.2179C50.9527 58.4669 48.8905 58.6001 46.8457 58.6001C44.7255 58.6001 42.5764 58.4611 40.4737 58.1889L40.2188 58.1542L40.2362 58.4148V58.4032ZM33.4066 57.1871C33.673 61.3682 34.4377 66.4702 38.0176 68.8561C39.1645 69.6205 43.428 69.8927 46.724 69.8927C50.0201 69.8927 54.1503 69.6263 55.3725 68.8909L55.442 68.8561C59.0567 66.4354 59.7808 61.2003 60.0067 56.9091L60.0299 56.4863L59.6765 56.718C58.4948 57.4998 57.5216 57.911 56.8555 57.911H55.1987L55.1872 58.1136C55.1118 59.6483 54.8396 62.4338 53.9012 63.8352C53.1945 64.8776 50.3097 65.5842 46.7298 65.5842C43.1499 65.5842 40.2709 64.8834 39.57 63.8352C38.6316 62.428 38.3651 59.6425 38.284 58.1136L38.2724 57.911H36.0365C35.2197 57.8183 34.4203 57.5056 33.7425 57.0018L33.3718 56.7296L33.4008 57.1871H33.4066ZM46.7356 71.8096C42.0261 71.8096 38.1856 71.2768 36.9517 70.4603C32.3813 67.4141 31.5761 61.2235 31.3849 54.9922C31.2633 54.5348 31.437 54.0888 31.7962 53.863C31.9468 53.7703 32.1264 53.7182 32.306 53.7182C32.5435 53.7182 32.7694 53.8051 32.9489 53.9614C34.0032 54.917 35.4977 55.9767 36.048 56.0173H38.4636V37.7753C37.8496 33.7853 37.6468 32.4244 37.5947 31.9842L35.8047 23.1412L35.6773 23.1065C34.9764 22.9096 34.2581 22.7938 33.534 22.7706H33.3139V22.0989C33.3139 22.6316 32.8794 23.0602 32.3523 23.0602C31.8252 23.0602 31.3907 22.6316 31.3907 22.0989V22.6606H31.0663C30.8056 22.6606 30.545 22.6606 30.2785 22.6722C30.012 22.6838 29.7456 22.6895 29.4675 22.6895C28.8998 22.6895 28.477 22.2842 28.4538 21.7688C28.4306 21.2418 28.8419 20.7901 29.3748 20.7611C30.012 20.7148 30.6087 20.7148 31.1822 20.7148H31.3965V18.2767C31.3965 14.4257 32.6246 5.07305 36.2682 2.36861C38.2435 0.903464 42.2404 -0.0057373 46.7066 -0.0057373C51.1728 -0.0057373 55.1756 0.903464 57.1567 2.36861C60.8524 5.1078 62.0979 14.4372 62.0979 18.2767V20.7206H62.3122C62.5844 20.7206 62.8683 20.7322 63.1579 20.7379C63.4707 20.7495 63.7951 20.7611 64.1253 20.7611H64.2875C64.4671 20.8074 64.6293 20.9059 64.7509 21.0449C64.9247 21.236 65.0174 21.4792 65 21.7398C64.9768 22.2552 64.554 22.6606 64.0384 22.6606H62.0631V52.2646C61.9704 58.7796 61.8546 66.8929 56.5021 70.4545C55.2972 71.2652 51.3756 71.8096 46.7356 71.8096Z" fill="#63578C"/>
<path d="M32.4102 55.525C31.8831 55.5539 31.4254 55.1486 31.3965 54.6158L31.3501 22.1915C31.3212 21.6645 31.7267 21.207 32.2596 21.178C32.5145 21.1664 32.7636 21.2533 32.9547 21.4213C33.1459 21.5892 33.2617 21.8324 33.2733 22.0814L33.3197 54.5058C33.3486 55.0327 32.9431 55.4902 32.4102 55.5192" fill="#63578C"/>
</g>
<defs>
<clipPath id="clip0_10_122">
<rect width="65" height="71.8095" fill="white"/>
</clipPath>
</defs>
</svg>
