<svg width="58" height="58" viewBox="0 0 58 58" fill="none" xmlns="http://www.w3.org/2000/svg">
<path d="M28.6344 0C5.72689 0 0 5.71159 0 28.5579C0 51.4043 5.72689 57.1159 28.6344 57.1159C51.542 57.1159 57.2689 51.4043 57.2689 28.5579C57.2689 5.71159 51.542 0 28.6344 0Z" fill="#000057"/>
<path d="M17.677 18.8711C17.8526 17.8354 18.0359 17.1272 18.1886 16.6626C18.2726 16.4113 18.4635 16.2209 18.7155 16.1448C19.1049 16.0305 19.67 15.8858 20.4565 15.7564C22.2967 15.4441 24.7555 15.2766 27.7716 15.2538C27.764 18.1933 25.374 20.5693 22.4265 20.5693H17.4403C17.509 19.9677 17.5854 19.4042 17.677 18.8787V18.8711ZM20.4565 41.3671C19.67 41.2377 19.1049 41.093 18.7155 40.9787C18.4635 40.9026 18.265 40.7046 18.1886 40.4609C18.0359 39.9963 17.8526 39.2881 17.677 38.2524C17.5854 37.7269 17.509 37.1634 17.4403 36.5618H22.4265C25.374 36.5618 27.764 38.9378 27.7716 41.8774C24.7478 41.8469 22.2891 41.6794 20.4565 41.3747V41.3671Z" fill="#00E6B0"/>
<path d="M38.2938 41.0473C37.9272 41.1463 37.4385 41.2605 36.8124 41.3595C35.6136 41.5575 34.1551 41.7022 32.4523 41.786C32.3989 36.3105 27.9319 31.8859 22.4265 31.8859H17.1272C17.0966 30.9035 17.0814 29.8526 17.0814 28.7331V28.3828C17.0814 27.2633 17.0966 26.2124 17.1272 25.23H22.4265C27.9319 25.23 32.3989 20.8054 32.4523 15.3299C34.1551 15.4137 35.6136 15.5508 36.8124 15.7564C37.4385 15.863 37.9272 15.9696 38.2938 16.0686C38.6756 16.1676 38.9199 16.5332 38.8817 16.9216C38.393 21.6964 35.8579 25.8697 32.1698 28.558C35.8579 31.2462 38.393 35.4195 38.8817 40.1944C38.9199 40.5828 38.6756 40.9483 38.2938 41.0473Z" fill="white"/>
</svg>
